<svg width="16.000000" height="16.000000" viewBox="0 0 16 16" fill="none" xmlns="http://www.w3.org/2000/svg" xmlns:xlink="http://www.w3.org/1999/xlink">
	<desc>
			Created with Pixso.
	</desc>
	<defs/>
	<path d="M2.85938 14.125C4.25 15.2969 6.04297 16 8 16C9.81641 16 11.6445 15.3828 13.1406 14.125C14.5352 12.9609 15.5391 11.3125 15.875 9.39062C16.1914 7.60156 15.9062 5.69531 14.9258 4C14.0195 2.42969 12.5742 1.14844 10.7344 0.484375C9.02734 -0.140625 7.10156 -0.1875 5.26562 0.484375C3.55859 1.10156 2.05078 2.30469 1.07422 4C0.164062 5.57031 -0.21875 7.46094 0.125 9.39062C0.4375 11.1797 1.35938 12.8672 2.85938 14.125ZM11.0977 11.6875C10.2578 12.3906 9.17969 12.8203 8 12.8203C6.90625 12.8203 5.80469 12.4453 4.90234 11.6875C4.06641 10.9844 3.46094 10 3.25781 8.83594C3.06641 7.75781 3.23828 6.60938 3.82812 5.59375C4.375 4.64062 5.24609 3.875 6.35156 3.47656C7.37891 3.10156 8.53906 3.07031 9.64844 3.47656C10.6758 3.85156 11.582 4.57031 12.1719 5.59375C12.7188 6.53906 12.9492 7.67969 12.7422 8.83594C12.5547 9.91406 12 10.9297 11.0977 11.6875Z" fill="#C4C4C4" fill-opacity="0.160000" fill-rule="evenodd"/>
	<path d="M8 16C5.79297 16 3.79297 15.1016 2.34375 13.6562C0.78125 12.0938 0.00390625 10.0469 0.00390625 8C0 5.78906 0.894531 3.78906 2.34375 2.34375C3.90234 0.78125 5.95312 0 8 0C10.207 0 12.207 0.898438 13.6562 2.34375L11.3945 4.60938C10.457 3.67188 9.23047 3.20312 8 3.20312C6.67578 3.20312 5.47656 3.73438 4.60547 4.60938C3.66797 5.53906 3.20312 6.77344 3.20312 8C3.19922 9.32812 3.73828 10.5234 4.60547 11.3906C5.54297 12.3281 6.76953 12.7969 8 12.7969L8 16Z" fill="#FFFFFF" fill-opacity="1.000000" fill-rule="evenodd"/>
</svg>
