<svg width="16.000000" height="16.000000" viewBox="0 0 16 16" fill="none" xmlns="http://www.w3.org/2000/svg" xmlns:xlink="http://www.w3.org/1999/xlink">
	<desc>
			Created with Pixso.
	</desc>
	<defs/>
	<path d="M8 16C12.4141 16 16 12.4141 16 8C16 3.58594 12.4141 0 8 0C3.58594 0 0 3.58594 0 8C0 12.4141 3.58594 16 8 16ZM11.6758 4.91406C12.3789 5.75 12.8008 6.82812 12.8008 8C12.8008 9.09375 12.4297 10.1875 11.6758 11.0859C10.9766 11.9219 9.98828 12.5234 8.83203 12.7266C7.76172 12.9141 6.61719 12.7422 5.60156 12.1562C4.65625 11.6094 3.89062 10.7422 3.49219 9.64062C3.11719 8.61719 3.08984 7.46094 3.49219 6.35938C3.86328 5.33594 4.58203 4.42969 5.60156 3.84375C6.54297 3.29688 7.67578 3.07031 8.83203 3.27344C9.90625 3.46094 10.9219 4.01562 11.6758 4.91406Z" fill="#C4C4C4" fill-opacity="0.160000" fill-rule="evenodd"/>
</svg>
