<svg width="38.000000" height="47.000000" viewBox="0 0 38 47" fill="none" xmlns="http://www.w3.org/2000/svg" xmlns:xlink="http://www.w3.org/1999/xlink">
	<desc>
			Created with Pixso.
	</desc>
	<defs/>
	<path id="Vector" d="M31.7383 24.9688C31.8008 32.0859 37.9336 34.4453 38 34.4766C37.9492 34.6484 37.0195 37.8516 34.7695 41.1641C32.8242 44.0234 30.8047 46.8828 27.625 46.9375C24.5 47 23.4961 45.0703 19.9258 45.0703C16.3516 45.0703 15.2344 46.8828 12.2773 47C9.20703 47.1172 6.87109 43.8984 4.91016 41.0469C0.902344 35.2109 -2.16016 24.5625 1.95312 17.3672C3.99609 13.7969 7.64453 11.5391 11.6094 11.4766C14.6211 11.4219 17.4688 13.5234 19.3086 13.5234C21.1523 13.5234 24.6094 10.9922 28.2461 11.3672C29.7656 11.4297 34.0391 11.9844 36.7812 16.0234C36.5586 16.1641 31.6836 19.0234 31.7383 24.9688ZM25.8633 7.50781C27.4922 5.51562 28.5898 2.75 28.2891 0C25.9414 0.09375 23.1016 1.57812 21.418 3.5625C19.9062 5.32031 18.582 8.13281 18.9414 10.8359C21.5586 11.0391 24.2344 9.49219 25.8633 7.50781Z" fill="#F2F4F7" fill-opacity="1.000000" fill-rule="nonzero"/>
</svg>
